<svg xmlns="http://www.w3.org/2000/svg">

<symbol id="facebook" viewBox="0 0 15 31">
<path d="M3.82915 30.5V16.4231H0V11.3548H3.82915V7.02575C3.82915 3.62396 6.09105 0.5 11.3029 0.5C13.4131 0.5 14.9736 0.69665 14.9736 0.69665L14.8506 5.42963C14.8506 5.42963 13.2592 5.41457 11.5227 5.41457C9.64319 5.41457 9.34207 6.25652 9.34207 7.65395V11.3548H15L14.7538 16.4231H9.34207V30.5H3.82915Z"/>
</symbol>

<symbol id="twitter" viewBox="0 0 38 33">
<path d="M37 1.51681C37 1.51681 33.6978 3.50971 31.8618 4.07482C30.8763 2.91704 29.5665 2.09645 28.1097 1.724C26.6528 1.35156 25.1192 1.44525 23.7161 1.99239C22.3131 2.53953 21.1084 3.51373 20.2649 4.78323C19.4214 6.05272 18.9799 7.55627 19 9.09051V10.7624C16.1243 10.8386 13.2748 10.187 10.7053 8.86555C8.13576 7.54414 5.92597 5.59396 4.27273 3.18871C4.27273 3.18871 -2.27273 18.2358 12.4545 24.9234C9.0845 27.2606 5.06989 28.4326 1 28.2672C15.7273 36.6267 33.7273 28.2672 33.7273 9.04035C33.7273 8.57556 33.6815 8.11078 33.5964 7.65268C35.2655 5.97075 37 1.51681 37 1.51681Z" stroke-width="2" stroke-linecap="round" stroke-linejoin="round"/>
</symbol>

<symbol id="instagram" viewBox="0 0 30 31">
<path d="M15 8.45918C13.6075 8.45918 12.2462 8.87212 11.0883 9.64577C9.93048 10.4194 9.02804 11.5191 8.49513 12.8056C7.96223 14.0921 7.8228 15.5078 8.09447 16.8736C8.36614 18.2394 9.03672 19.4939 10.0214 20.4786C11.0061 21.4633 12.2606 22.1339 13.6264 22.4055C14.9922 22.6772 16.4079 22.5378 17.6944 22.0049C18.9809 21.472 20.0806 20.5695 20.8542 19.4117C21.6279 18.2538 22.0408 16.8925 22.0408 15.5C22.0408 13.6327 21.299 11.8418 19.9786 10.5214C18.6582 9.20098 16.8673 8.45918 15 8.45918ZM15 20.7041C13.9707 20.7041 12.9646 20.3989 12.1088 19.827C11.253 19.2552 10.5859 18.4424 10.1921 17.4915C9.79817 16.5406 9.69511 15.4942 9.89591 14.4847C10.0967 13.4752 10.5924 12.548 11.3202 11.8202C12.048 11.0924 12.9752 10.5967 13.9847 10.3959C14.9942 10.1951 16.0406 10.2982 16.9915 10.6921C17.9424 11.0859 18.7552 11.753 19.327 12.6088C19.8989 13.4646 20.2041 14.4707 20.2041 15.5C20.2 16.879 19.6505 18.2003 18.6754 19.1754C17.7003 20.1505 16.379 20.7 15 20.7041ZM21.7347 0.5H8.26531C6.07321 0.5 3.9709 1.37081 2.42085 2.92085C0.870807 4.4709 0 6.57321 0 8.76531V22.2347C0 24.4268 0.870807 26.5291 2.42085 28.0791C3.9709 29.6292 6.07321 30.5 8.26531 30.5H21.7347C23.9268 30.5 26.0291 29.6292 27.5791 28.0791C29.1292 26.5291 30 24.4268 30 22.2347V8.76531C30 6.57321 29.1292 4.4709 27.5791 2.92085C26.0291 1.37081 23.9268 0.5 21.7347 0.5ZM28.1633 22.2347C28.1633 23.9397 27.486 25.5748 26.2804 26.7804C25.0748 27.986 23.4397 28.6633 21.7347 28.6633H8.26531C6.56034 28.6633 4.92521 27.986 3.71962 26.7804C2.51403 25.5748 1.83673 23.9397 1.83673 22.2347V8.76531C1.83673 7.06034 2.51403 5.42521 3.71962 4.21962C4.92521 3.01403 6.56034 2.33673 8.26531 2.33673H21.7347C23.4397 2.33673 25.0748 3.01403 26.2804 4.21962C27.486 5.42521 28.1633 7.06034 28.1633 8.76531V22.2347ZM24.4898 7.54082C24.4898 7.84354 24.4 8.13947 24.2318 8.39118C24.0637 8.64289 23.8246 8.83907 23.5449 8.95492C23.2652 9.07077 22.9575 9.10108 22.6606 9.04202C22.3637 8.98296 22.0909 8.83718 21.8769 8.62312C21.6628 8.40906 21.517 8.13633 21.458 7.83942C21.3989 7.54251 21.4292 7.23476 21.5451 6.95508C21.6609 6.67539 21.8571 6.43634 22.1088 6.26816C22.3605 6.09997 22.6565 6.0102 22.9592 6.0102C23.3651 6.0102 23.7544 6.17146 24.0415 6.45851C24.3285 6.74556 24.4898 7.13487 24.4898 7.54082Z"/>
</symbol>

</svg>